<?xml version="1.0" standalone="no"?>
<!DOCTYPE svg PUBLIC "-//W3C//DTD SVG 20010904//EN"
 "http://www.w3.org/TR/2001/REC-SVG-20010904/DTD/svg10.dtd">
<svg version="1.0" xmlns="http://www.w3.org/2000/svg"
 width="256.000000pt" height="256.000000pt" viewBox="0 0 256.000000 256.000000"
 preserveAspectRatio="xMidYMid meet">
<metadata>
Created by potrace 1.10, written by Peter Selinger 2001-2011
</metadata>
<g transform="translate(0.000000,256.000000) scale(0.050000,-0.050000)"
fill="#000000" stroke="none">
<path d="M1300 4709 c-626 -373 -626 -363 -17 -727 483 -288 571 -293 593 -34
l9 108 245 -148 c353 -212 450 -200 450 55 0 140 -2 139 181 116 1859 -231
2041 -2894 229 -3343 -1060 -262 -2130 544 -2130 1604 0 234 -85 360 -244 360
-207 0 -266 -99 -249 -419 77 -1492 1527 -2451 2964 -1962 1645 560 1939 2844
499 3865 -331 235 -739 379 -1130 400 l-110 6 -10 134 c-19 255 -89 266 -424
67 -303 -180 -296 -179 -296 -44 0 251 -87 245 -560 -38z m460 -30 c0 -250 -5
-250 373 -21 343 209 347 209 347 12 0 -181 1 -182 250 -197 1316 -82 2215
-1408 1837 -2711 -473 -1634 -2644 -2003 -3688 -627 -389 512 -566 1465 -272
1465 111 0 139 -54 154 -302 81 -1287 1345 -2058 2556 -1559 1035 427 1380
1812 682 2739 -316 419 -771 665 -1320 713 -184 17 -195 7 -203 -182 -8 -186
-16 -185 -355 21 -347 211 -349 211 -357 -5 -5 -139 -11 -165 -39 -165 -67 0
-787 447 -781 485 7 43 752 495 790 481 18 -7 26 -54 26 -147z"/>
<path d="M2876 3082 c-495 -199 -614 -938 -212 -1314 508 -475 1249 95 1056
813 -108 399 -508 637 -844 501z m448 -128 c534 -315 352 -1258 -243 -1258
-463 0 -725 642 -435 1069 162 240 454 321 678 189z"/>
<path d="M2970 2793 c-370 -172 -294 -857 98 -888 289 -24 469 380 314 702
-80 164 -272 251 -412 186z m247 -138 c282 -260 21 -845 -265 -594 -38 34 -80
93 -93 133 -107 323 149 653 358 461z"/>
<path d="M1711 3050 c-236 -53 -297 -90 -328 -201 -45 -162 61 -280 249 -277
l128 2 0 -409 0 -409 68 -68 c131 -131 348 -66 382 114 7 37 9 313 6 613 l-6
544 -62 62 c-83 83 -167 89 -437 29z m360 -99 l49 -49 0 -551 c0 -613 -4 -631
-139 -631 -112 0 -121 39 -121 523 0 489 8 468 -159 436 -153 -31 -221 3 -221
109 0 93 31 112 276 163 273 57 257 57 315 0z"/>
</g>
</svg>
