<svg xmlns="http://www.w3.org/2000/svg" version="1.1" xmlns:xlink="http://www.w3.org/1999/xlink" xmlns:svgjs="http://svgjs.dev/svgjs" width="1500" height="712" viewBox="0 0 1500 712"><g transform="matrix(1,0,0,1,0.15999999999996817,-0.7816599999999312)"><svg viewBox="0 0 375 178" data-background-color="#001f3f" preserveAspectRatio="xMidYMid meet" height="712" width="1500" xmlns="http://www.w3.org/2000/svg" xmlns:xlink="http://www.w3.org/1999/xlink"><g id="tight-bounds" transform="matrix(1,0,0,1,-0.03976000000000113,0.19581499999999608)"><svg viewBox="0 0 375.07953 177.60877000000002" height="177.60877000000002" width="375.07953"><g><svg></svg></g><g><svg viewBox="0 0 375.07953 177.60877000000002" height="177.60877000000002" width="375.07953"><g transform="matrix(1,0,0,1,-10.22024,-40.421400000000006)"><path d="M10.22 206.779v-166.358h375.08v166.358l-35.887 0 0-5.678h30.21v-155.002h-363.726v155.002l30.21 0 0 5.678z" fill="#243cfc" fill-rule="nonzero" stroke="none" stroke-width="1" stroke-linecap="butt" stroke-linejoin="miter" stroke-miterlimit="10" stroke-dasharray="" stroke-dashoffset="0" font-family="none" font-weight="none" font-size="none" text-anchor="none" style="mix-blend-mode: normal" data-fill-palette-color="tertiary"></path><g><path d="M79.06 178.17v0c3.002 0 6.228 0.52 9.679 1.561v0l-1.505 4.255c-3.294-0.951-6.146-1.426-8.555-1.426v0c-2.702 0-4.989 0.569-6.861 1.707-1.879 1.145-2.818 2.624-2.818 4.435v0c0 1.003 0.303 1.898 0.909 2.683 0.606 0.786 1.4 1.426 2.381 1.921 0.988 0.494 2.115 0.981 3.379 1.459 1.258 0.487 2.541 0.932 3.852 1.336 1.302 0.397 2.586 0.906 3.851 1.527 1.258 0.621 2.38 1.302 3.368 2.044 0.988 0.741 1.782 1.707 2.381 2.897 0.606 1.19 0.909 2.534 0.909 4.031v0c0 1.04-0.165 2.077-0.494 3.11-0.329 1.033-0.876 2.055-1.639 3.065-0.771 1.018-1.722 1.909-2.852 2.673-1.138 0.771-2.568 1.392-4.289 1.864-1.729 0.479-3.653 0.719-5.772 0.718-2.126 0-4.08-0.221-5.861-0.662-1.782-0.434-3.776-1.093-5.984-1.976v0l1.594-4.514c4.566 1.699 8.174 2.549 10.824 2.549v0c2.777 0 5.038-0.558 6.782-1.673 1.744-1.115 2.616-2.605 2.616-4.469v0c0-1.243-0.386-2.317-1.156-3.223-0.778-0.906-1.785-1.636-3.021-2.189-1.235-0.561-2.601-1.085-4.098-1.572-1.497-0.479-2.99-0.999-4.48-1.561-1.49-0.554-2.852-1.198-4.087-1.931-1.235-0.726-2.242-1.71-3.021-2.953-0.771-1.25-1.157-2.713-1.156-4.391v0c0-1.497 0.359-2.931 1.078-4.3 0.726-1.377 1.729-2.579 3.009-3.604 1.273-1.033 2.871-1.856 4.794-2.47 1.916-0.614 3.997-0.921 6.243-0.921zM98.395 183.705v-5.176h5.311v5.176zM98.8 217.48v-27.083h4.502v27.083zM113.172 217.48v-41.421h4.491v41.421zM118.101 202.513l11.947-12.666h4.963l-11.779 12.194 12.497 15.439h-5.4zM154.582 193.901v0c-2.133 0-4.544 0.704-7.231 2.111v0 21.468h-4.492v-41.421h4.492v16.393c3.196-1.699 6.194-2.549 8.994-2.549v0c1.205 0 2.287 0.153 3.244 0.461 0.958 0.314 1.748 0.704 2.37 1.167 0.621 0.464 1.157 1.067 1.605 1.808 0.449 0.741 0.786 1.437 1.011 2.089 0.232 0.651 0.408 1.422 0.528 2.313 0.12 0.898 0.191 1.628 0.213 2.189 0.03 0.569 0.045 1.239 0.045 2.01v0 15.54h-4.604v-16.371c0-4.806-2.059-7.209-6.175-7.208zM189.21 217.48l13.844-38.951h5.289l13.844 38.951h-4.716l-3.952-11.318h-16.057l-3.952 11.318zM212.104 202.075l-6.613-18.998-6.636 18.998zM246.395 211.888v-21.491h4.492v27.083h-3.156l-0.954-2.279c-3.458 1.886-6.647 2.83-9.566 2.829v0c-1.482 0-2.77-0.232-3.863-0.696-1.1-0.472-1.95-1.052-2.549-1.74-0.606-0.696-1.093-1.579-1.459-2.65-0.367-1.07-0.599-2.088-0.697-3.054-0.097-0.973-0.146-2.081-0.146-3.324v0-16.169h4.492v16.506c0 4.731 2.055 7.096 6.164 7.096v0c2.118 0 4.532-0.704 7.242-2.111zM259.386 204.399v0c0-2.335 0.329-4.435 0.988-6.299 0.659-1.864 1.564-3.391 2.718-4.581 1.145-1.183 2.493-2.092 4.042-2.729 1.542-0.629 3.208-0.943 4.996-0.943v0c2.156 0 4.342 0.483 6.558 1.449v0-15.237h4.491v41.421h-3.121l-0.741-1.695c-2.538 1.497-5.187 2.246-7.95 2.245v0c-1.138 0-2.246-0.138-3.324-0.415-1.078-0.269-2.145-0.745-3.2-1.426-1.063-0.674-1.991-1.52-2.784-2.538-0.793-1.011-1.437-2.309-1.932-3.896-0.494-1.594-0.741-3.38-0.741-5.356zM272.849 214.325v0c1.991 0 3.937-0.509 5.839-1.527v0-18.1c-1.961-0.876-3.926-1.314-5.895-1.314v0c-0.838 0-1.651 0.09-2.437 0.27-0.786 0.187-1.591 0.516-2.414 0.988-0.823 0.479-1.535 1.093-2.133 1.841-0.591 0.749-1.078 1.74-1.46 2.976-0.382 1.235-0.573 2.646-0.572 4.233v0c0 1.647 0.198 3.114 0.595 4.401 0.404 1.288 0.917 2.313 1.538 3.077 0.621 0.771 1.351 1.404 2.19 1.897 0.846 0.494 1.651 0.827 2.414 1 0.771 0.172 1.55 0.258 2.335 0.258zM292.914 183.705v-5.176h5.311v5.176zM293.318 217.48v-27.083h4.503v27.083zM319.503 189.881v0c3.743 0 6.827 1.194 9.252 3.582 2.418 2.395 3.627 5.704 3.626 9.925v0c0 4.476-1.235 8.036-3.705 10.679-2.478 2.642-5.682 3.964-9.611 3.963v0c-3.75 0-6.812-1.239-9.185-3.716-2.373-2.478-3.559-5.835-3.559-10.072v0c0-4.372 1.209-7.86 3.626-10.465 2.425-2.597 5.61-3.896 9.556-3.896zM319.121 193.71v0c-2.253 0-4.218 0.868-5.895 2.605-1.684 1.737-2.526 4.121-2.526 7.152v0c0 3.017 0.823 5.558 2.47 7.624 1.647 2.066 3.776 3.099 6.389 3.099v0c2.41 0 4.42-0.913 6.029-2.74 1.609-1.826 2.414-4.211 2.414-7.152v0c0-1.684-0.262-3.211-0.786-4.581-0.516-1.37-1.201-2.485-2.054-3.346-0.846-0.861-1.793-1.52-2.841-1.976-1.04-0.457-2.107-0.685-3.2-0.685z" fill="#f58f29" fill-rule="nonzero" stroke="none" stroke-width="1" stroke-linecap="butt" stroke-linejoin="miter" stroke-miterlimit="10" stroke-dasharray="" stroke-dashoffset="0" font-family="none" font-weight="none" font-size="none" text-anchor="none" style="mix-blend-mode: normal" data-fill-palette-color="secondary" id="text-1"></path></g></g><g transform="matrix(1,0,0,1,29.33176499999999,57.32766306726671)"><svg viewBox="0 0 316.416 62.9534438654666" height="62.9534438654666" width="316.416"><g><svg viewBox="0 0 316.416 62.9534438654666" height="62.9534438654666" width="316.416"><g><svg viewBox="0 0 316.416 62.9534438654666" height="62.9534438654666" width="316.416"><g id="textblocktransform"><svg viewBox="0 0 316.416 62.9534438654666" height="62.9534438654666" width="316.416" id="textblock"><g><svg viewBox="0 0 316.416 62.9534438654666" height="62.9534438654666" width="316.416"><g transform="matrix(1,0,0,1,0,0)"><svg width="316.416" viewBox="4.54 -40.5 206.14000000000001 41.01" height="62.9534438654666" data-palette-color="#f58f29"><path d="M4.54 0L4.54-40.5 11.77-40.5 11.77-16.58 25.24-28.81 36.3-28.81 21.24-15.33 37.26 0 26.42 0 15.7-10.38 11.77-6.86 11.77 0 4.54 0ZM40.65-14.5L40.65-14.5Q40.65-17.43 41.84-20.1 43.04-22.78 45.29-24.83 47.53-26.88 50.79-28.1 54.05-29.32 58.2-29.32L58.2-29.32Q62.33-29.32 65.63-28.09 68.94-26.86 71.25-24.71 73.56-22.56 74.79-19.65 76.02-16.75 76.02-13.43L76.02-13.43Q76.02-13.01 76.01-12.54 76-12.06 75.95-11.67L75.95-11.67 48.7-11.67Q49.17-10.38 50.21-9.3 51.24-8.23 52.81-7.45 54.37-6.67 56.42-6.24 58.47-5.81 60.96-5.81L60.96-5.81Q63.45-5.81 65.92-6.34 68.38-6.86 70.63-7.67L70.63-7.67 73.07-2.15Q71.65-1.49 70.2-0.99 68.75-0.49 67.17-0.16 65.6 0.17 63.88 0.34 62.16 0.51 60.25 0.51L60.25 0.51Q55.39 0.51 51.73-0.66 48.07-1.83 45.6-3.86 43.14-5.88 41.89-8.62 40.65-11.35 40.65-14.5ZM48.7-17.31L68.36-17.31Q67.97-18.51 67.15-19.54 66.33-20.58 65.11-21.35 63.89-22.12 62.28-22.56 60.67-23 58.74-23L58.74-23Q56.69-23 55-22.53 53.32-22.07 52.05-21.29 50.78-20.51 49.94-19.48 49.09-18.46 48.7-17.31L48.7-17.31ZM82.42-14.5L82.42-14.5Q82.42-17.43 83.61-20.1 84.81-22.78 87.06-24.83 89.3-26.88 92.56-28.1 95.82-29.32 99.97-29.32L99.97-29.32Q104.1-29.32 107.4-28.09 110.71-26.86 113.02-24.71 115.33-22.56 116.56-19.65 117.79-16.75 117.79-13.43L117.79-13.43Q117.79-13.01 117.78-12.54 117.77-12.06 117.72-11.67L117.72-11.67 90.47-11.67Q90.94-10.38 91.97-9.3 93.01-8.23 94.58-7.45 96.14-6.67 98.19-6.24 100.24-5.81 102.73-5.81L102.73-5.81Q105.22-5.81 107.69-6.34 110.15-6.86 112.4-7.67L112.4-7.67 114.84-2.15Q113.42-1.49 111.97-0.99 110.52-0.49 108.94-0.16 107.37 0.17 105.65 0.34 103.93 0.51 102.02 0.51L102.02 0.51Q97.16 0.51 93.5-0.66 89.84-1.83 87.37-3.86 84.91-5.88 83.66-8.62 82.42-11.35 82.42-14.5ZM90.47-17.31L110.13-17.31Q109.74-18.51 108.92-19.54 108.1-20.58 106.88-21.35 105.66-22.12 104.05-22.56 102.44-23 100.51-23L100.51-23Q98.46-23 96.77-22.53 95.09-22.07 93.82-21.29 92.55-20.51 91.71-19.48 90.86-18.46 90.47-17.31L90.47-17.31ZM125.55 0L125.55-28.81 132.78-28.81 132.78-24.66Q135.17-26.44 137.83-27.73 140.5-29.03 143.13-29.71L143.13-29.71 145.26-23.1Q141.08-22.68 137.92-21.23 134.76-19.78 132.78-17.14L132.78-17.14 132.78 0 125.55 0ZM149.26-9.08L149.26-9.08Q149.26-11.16 150.16-12.87 151.06-14.58 152.87-15.81 154.68-17.04 157.38-17.71 160.07-18.38 163.66-18.38L163.66-18.38Q166.32-18.38 169.26-17.99 172.21-17.6 175.33-16.8L175.33-16.8Q175.21-18.16 174.5-19.32 173.79-20.48 172.54-21.33 171.28-22.17 169.51-22.63 167.74-23.1 165.49-23.1L165.49-23.1Q164.27-23.1 162.81-22.95 161.34-22.8 159.78-22.51 158.22-22.22 156.69-21.78 155.17-21.34 153.85-20.73L153.85-20.73 151.65-26.66Q153.29-27.25 155.15-27.73 157.02-28.22 158.97-28.58 160.93-28.93 162.88-29.13 164.83-29.32 166.66-29.32L166.66-29.32Q174.75-29.32 178.68-25.2 182.61-21.07 182.61-12.55L182.61-12.55 182.61 0 175.38 0 175.38-2.71Q174.26-2.05 172.93-1.46 171.6-0.88 170.03-0.44 168.47 0 166.68 0.26 164.88 0.51 162.88 0.51L162.88 0.51Q159.51 0.51 156.96-0.22 154.41-0.95 152.7-2.25 150.99-3.54 150.12-5.29 149.26-7.03 149.26-9.08ZM156.87-9.33L156.87-9.33Q156.87-8.62 157.24-7.97 157.61-7.32 158.41-6.82 159.22-6.32 160.48-6.02 161.73-5.71 163.52-5.71L163.52-5.71Q165.42-5.71 167.2-6.05 168.98-6.4 170.52-6.96 172.06-7.52 173.31-8.25 174.55-8.98 175.38-9.77L175.38-9.77 175.38-11.04Q173.72-11.5 172.1-11.82 170.47-12.13 169-12.32 167.52-12.5 166.21-12.57 164.91-12.65 163.93-12.65L163.93-12.65Q161.9-12.65 160.56-12.38 159.22-12.11 158.39-11.66 157.56-11.21 157.22-10.6 156.87-9.99 156.87-9.33ZM196.5 0L196.5-23.39 189.54-23.39 189.54-28.81 196.5-28.81 196.5-37.77 203.72-37.77 203.72-28.81 210.68-28.81 210.68-23.39 203.72-23.39 203.72 0 196.5 0Z" opacity="1" transform="matrix(1,0,0,1,0,0)" fill="#f58f29" class="wordmark-text-0" data-fill-palette-color="primary" id="text-0"></path></svg></g></svg></g></svg></g></svg></g><g></g></svg></g></svg></g></svg></g><defs></defs></svg><rect width="375.07953" height="177.60877000000002" fill="none" stroke="none" visibility="hidden"></rect></g></svg></g></svg>